name Walk3.mot
datacolumns 19
datarows 12
range 0.69500000 0.70600000
endheader

                time	   L_ground_force_vx	   L_ground_force_vy	   L_ground_force_vz	   L_ground_force_px	   L_ground_force_py	   L_ground_force_pz	   R_ground_force_vx	   R_ground_force_vy	   R_ground_force_vz	   R_ground_force_px	   R_ground_force_py	   R_ground_force_pz	   L_ground_torque_x	   L_ground_torque_y	   L_ground_torque_z	   R_ground_torque_x	   R_ground_torque_y	   R_ground_torque_z	
          0.69500000	         -7.75821013	        112.22134428	         -4.52061964	         -0.16106819	          0.00000000	         -0.00913021	         -0.00000005	          0.00000119	          0.00000011	          0.00000000	          0.00000000	          0.00000000	          0.00000000	          0.09121560	          0.00000000	          0.00000000	          0.00000000	          0.00000000	
          0.69600000	         -8.62094313	        121.16027169	         -4.81196286	         -0.17118214	          0.00000000	         -0.00977580	         -0.00000006	          0.00000126	          0.00000011	          0.00000000	          0.00000000	          0.00000000	          0.00000000	          0.10419628	          0.00000000	          0.00000000	          0.00000000	          0.00000000	
          0.69700000	         -9.52824192	        130.42946834	         -5.11050618	         -0.18152896	          0.00000000	         -0.01044102	         -0.00000006	          0.00000134	          0.00000012	          0.00000000	          0.00000000	          0.00000000	          0.00000000	          0.11795288	          0.00000000	          0.00000000	          0.00000000	          0.00000000	
          0.69800000	        -10.48050071	        140.02134354	         -5.41568573	         -0.19208757	          0.00000000	         -0.01112493	         -0.00000007	          0.00000141	          0.00000012	          0.00000000	          0.00000000	          0.00000000	          0.00000000	          0.13250067	          0.00000000	          0.00000000	          0.00000000	          0.00000000	
          0.69900000	        -11.47796466	        149.92626865	         -5.72685780	         -0.20283403	          0.00000000	         -0.01182645	         -0.00000007	          0.00000149	          0.00000013	          0.00000000	          0.00000000	          0.00000000	          0.00000000	          0.14785310	          0.00000000	          0.00000000	          0.00000000	          0.00000000	
          0.70000000	        -12.52071503	        160.13242740	         -6.04329415	         -0.21374142	          0.00000000	         -0.01254431	         -0.00000008	          0.00000156	          0.00000013	          0.00000000	          0.00000000	          0.00000000	          0.00000000	          0.16402154	          0.00000000	          0.00000000	          0.00000000	          0.00000000	
          0.70100000	        -13.60865361	        170.62566141	         -6.36417710	         -0.22477964	          0.00000000	         -0.01327708	         -0.00000009	          0.00000164	          0.00000014	          0.00000000	          0.00000000	          0.00000000	          0.00000000	          0.18101503	          0.00000000	          0.00000000	          0.00000001	          0.00000000	
          0.70200000	        -14.74148641	        181.38931107	         -6.68859463	         -0.23591528	          0.00000000	         -0.01402310	         -0.00000009	          0.00000172	          0.00000015	          0.00000000	          0.00000000	          0.00000000	          0.00000000	          0.19884007	          0.00000000	          0.00000000	          0.00000001	          0.00000000	
          0.70300000	        -15.91870674	        192.40405185	         -7.01553539	         -0.24711138	          0.00000000	         -0.01478054	         -0.00000010	          0.00000180	          0.00000015	          0.00000000	          0.00000000	          0.00000000	          0.00000000	          0.21750031	          0.00000000	          0.00000000	          0.00000001	          0.00000000	
          0.70400000	        -17.13958095	        203.64774521	         -7.34388416	         -0.25832777	          0.00000000	         -0.01554730	         -0.00000011	          0.00000188	          0.00000016	          0.00000000	          0.00000000	          0.00000000	          0.00000000	          0.23699662	          0.00000000	          0.00000000	          0.00000001	          0.00000000	
          0.70500000	        -18.40314551	        215.09536164	         -7.67241889	         -0.26952261	          0.00000000	         -0.01632108	         -0.00000011	          0.00000195	          0.00000016	          0.00000000	          0.00000000	          0.00000000	          0.00000000	          0.25732809	          0.00000000	          0.00000000	          0.00000001	          0.00000000	
          0.70600000	        -19.70821780	        226.71903050	         -7.99980801	         -0.28065497	          0.00000000	         -0.01709931	         -0.00000012	          0.00000203	          0.00000017	          0.00000000	          0.00000000	          0.00000000	          0.00000000	          0.27849371	          0.00000000	          0.00000000	          0.00000001	          0.00000000	
